<mxfile host="app.diagrams.net" modified="2021-09-20T09:47:20.110Z" agent="5.0 (Windows NT 10.0; Win64; x64) AppleWebKit/537.36 (KHTML, like Gecko) Chrome/92.0.4515.107 Safari/537.36" etag="PRTnHrrg6Odokj1Oy1hz" version="15.2.9" type="github">
  <diagram id="TGQ3_KodqNLmdU-teGlT" name="第 1 页">
    <mxGraphModel dx="1422" dy="762" grid="1" gridSize="10" guides="1" tooltips="1" connect="1" arrows="1" fold="1" page="1" pageScale="1" pageWidth="1169" pageHeight="827" math="0" shadow="0">
      <root>
        <mxCell id="0" />
        <mxCell id="1" parent="0" />
        <mxCell id="YdQVYFNw6rNRHkDgGMQC-7" value="" style="shape=datastore;whiteSpace=wrap;html=1;fontFamily=Comic Sans MS;fontSize=18;strokeWidth=0;" vertex="1" parent="1">
          <mxGeometry x="220" y="630" width="60" height="60" as="geometry" />
        </mxCell>
        <mxCell id="YdQVYFNw6rNRHkDgGMQC-22" style="edgeStyle=none;rounded=0;orthogonalLoop=1;jettySize=auto;html=1;exitX=0.5;exitY=1;exitDx=0;exitDy=0;fontFamily=Comic Sans MS;fontSize=20;fillColor=#66B2FF;" edge="1" parent="1" source="YdQVYFNw6rNRHkDgGMQC-20" target="YdQVYFNw6rNRHkDgGMQC-21">
          <mxGeometry relative="1" as="geometry" />
        </mxCell>
        <mxCell id="YdQVYFNw6rNRHkDgGMQC-24" value="1.fork" style="edgeLabel;html=1;align=center;verticalAlign=middle;resizable=0;points=[];fontSize=20;fontFamily=Comic Sans MS;labelBackgroundColor=#66B2FF;" vertex="1" connectable="0" parent="YdQVYFNw6rNRHkDgGMQC-22">
          <mxGeometry x="-0.2667" y="1" relative="1" as="geometry">
            <mxPoint as="offset" />
          </mxGeometry>
        </mxCell>
        <mxCell id="YdQVYFNw6rNRHkDgGMQC-26" style="edgeStyle=none;rounded=0;orthogonalLoop=1;jettySize=auto;html=1;exitX=0;exitY=0.5;exitDx=0;exitDy=0;fontFamily=Comic Sans MS;fontSize=20;fillColor=#66B2FF;entryX=1;entryY=0.5;entryDx=0;entryDy=0;" edge="1" parent="1" source="YdQVYFNw6rNRHkDgGMQC-20" target="YdQVYFNw6rNRHkDgGMQC-27">
          <mxGeometry relative="1" as="geometry">
            <mxPoint x="470" y="150" as="targetPoint" />
          </mxGeometry>
        </mxCell>
        <mxCell id="YdQVYFNw6rNRHkDgGMQC-30" style="edgeStyle=none;rounded=0;orthogonalLoop=1;jettySize=auto;html=1;exitX=0;exitY=0.5;exitDx=0;exitDy=0;entryX=1;entryY=0.25;entryDx=0;entryDy=0;fontFamily=Comic Sans MS;fontSize=20;fillColor=#66B2FF;" edge="1" parent="1" source="YdQVYFNw6rNRHkDgGMQC-20" target="YdQVYFNw6rNRHkDgGMQC-28">
          <mxGeometry relative="1" as="geometry" />
        </mxCell>
        <mxCell id="YdQVYFNw6rNRHkDgGMQC-40" value="&lt;font style=&quot;font-size: 15px&quot;&gt;3.有子进程后，&lt;br&gt;所有写操作写入缓存&lt;/font&gt;" style="edgeLabel;html=1;align=center;verticalAlign=middle;resizable=0;points=[];fontSize=17;fontFamily=Comic Sans MS;labelBackgroundColor=#66B2FF;" vertex="1" connectable="0" parent="YdQVYFNw6rNRHkDgGMQC-30">
          <mxGeometry x="0.088" y="2" relative="1" as="geometry">
            <mxPoint as="offset" />
          </mxGeometry>
        </mxCell>
        <mxCell id="YdQVYFNw6rNRHkDgGMQC-51" style="edgeStyle=orthogonalEdgeStyle;curved=1;rounded=0;orthogonalLoop=1;jettySize=auto;html=1;exitX=0;exitY=1;exitDx=0;exitDy=0;entryX=0.5;entryY=1;entryDx=0;entryDy=0;labelBackgroundColor=#FFCE9F;fontFamily=Comic Sans MS;fontSize=17;fontColor=none;fillColor=#66B2FF;" edge="1" parent="1" source="YdQVYFNw6rNRHkDgGMQC-20" target="YdQVYFNw6rNRHkDgGMQC-28">
          <mxGeometry relative="1" as="geometry">
            <Array as="points">
              <mxPoint x="658" y="360" />
              <mxPoint x="320" y="360" />
            </Array>
          </mxGeometry>
        </mxCell>
        <mxCell id="YdQVYFNw6rNRHkDgGMQC-52" value="&lt;span style=&quot;background-color: rgb(255 , 206 , 159)&quot;&gt;2.调用信号处理函数&lt;/span&gt;" style="edgeLabel;html=1;align=center;verticalAlign=middle;resizable=0;points=[];fontSize=17;fontFamily=Comic Sans MS;fontColor=none;" vertex="1" connectable="0" parent="YdQVYFNw6rNRHkDgGMQC-51">
          <mxGeometry x="0.2539" y="2" relative="1" as="geometry">
            <mxPoint as="offset" />
          </mxGeometry>
        </mxCell>
        <mxCell id="YdQVYFNw6rNRHkDgGMQC-20" value="父进程" style="ellipse;whiteSpace=wrap;html=1;fontFamily=Comic Sans MS;fontSize=20;strokeWidth=5;gradientColor=none;" vertex="1" parent="1">
          <mxGeometry x="640" y="160" width="120" height="80" as="geometry" />
        </mxCell>
        <mxCell id="YdQVYFNw6rNRHkDgGMQC-33" style="edgeStyle=none;rounded=0;orthogonalLoop=1;jettySize=auto;html=1;exitX=0;exitY=0.5;exitDx=0;exitDy=0;entryX=1;entryY=0.5;entryDx=0;entryDy=0;fontFamily=Comic Sans MS;fontSize=20;fillColor=#66B2FF;" edge="1" parent="1" source="YdQVYFNw6rNRHkDgGMQC-21" target="YdQVYFNw6rNRHkDgGMQC-32">
          <mxGeometry relative="1" as="geometry" />
        </mxCell>
        <mxCell id="YdQVYFNw6rNRHkDgGMQC-34" value="&lt;div style=&quot;font-size: 17px&quot;&gt;&lt;span style=&quot;font-size: 17px&quot;&gt;2.把快照内容以命令方式&lt;/span&gt;&lt;/div&gt;&lt;div style=&quot;font-size: 17px&quot;&gt;&lt;span style=&quot;font-size: 17px&quot;&gt;写到临时文件中&lt;/span&gt;&lt;/div&gt;" style="edgeLabel;html=1;align=center;verticalAlign=middle;resizable=0;points=[];fontSize=17;fontFamily=Comic Sans MS;labelBackgroundColor=#66B2FF;" vertex="1" connectable="0" parent="YdQVYFNw6rNRHkDgGMQC-33">
          <mxGeometry x="0.1" y="-2" relative="1" as="geometry">
            <mxPoint x="16" y="2" as="offset" />
          </mxGeometry>
        </mxCell>
        <mxCell id="YdQVYFNw6rNRHkDgGMQC-38" style="edgeStyle=none;rounded=0;orthogonalLoop=1;jettySize=auto;html=1;exitX=0;exitY=0;exitDx=0;exitDy=0;entryX=0;entryY=1;entryDx=0;entryDy=0;fontFamily=Comic Sans MS;fontSize=17;fillColor=#66B2FF;" edge="1" parent="1" source="YdQVYFNw6rNRHkDgGMQC-21" target="YdQVYFNw6rNRHkDgGMQC-20">
          <mxGeometry relative="1" as="geometry">
            <Array as="points">
              <mxPoint x="658" y="320" />
            </Array>
          </mxGeometry>
        </mxCell>
        <mxCell id="YdQVYFNw6rNRHkDgGMQC-39" value="1.完成重写" style="edgeLabel;html=1;align=center;verticalAlign=middle;resizable=0;points=[];fontSize=17;fontFamily=Comic Sans MS;labelBackgroundColor=#FFCE9F;" vertex="1" connectable="0" parent="YdQVYFNw6rNRHkDgGMQC-38">
          <mxGeometry x="-0.1916" y="-1" relative="1" as="geometry">
            <mxPoint as="offset" />
          </mxGeometry>
        </mxCell>
        <mxCell id="YdQVYFNw6rNRHkDgGMQC-21" value="子进程" style="ellipse;whiteSpace=wrap;html=1;fontFamily=Comic Sans MS;fontSize=20;strokeWidth=5;gradientColor=none;" vertex="1" parent="1">
          <mxGeometry x="640" y="470" width="120" height="80" as="geometry" />
        </mxCell>
        <mxCell id="YdQVYFNw6rNRHkDgGMQC-25" value="&lt;span style=&quot;background-color: rgb(102 , 178 , 255)&quot;&gt;2.继续处理client请求&lt;/span&gt;" style="html=1;verticalAlign=bottom;endArrow=open;dashed=1;endSize=8;fontFamily=Comic Sans MS;fontSize=20;fillColor=#66B2FF;" edge="1" parent="1">
          <mxGeometry relative="1" as="geometry">
            <mxPoint x="1000" y="200" as="sourcePoint" />
            <mxPoint x="760" y="200" as="targetPoint" />
          </mxGeometry>
        </mxCell>
        <mxCell id="YdQVYFNw6rNRHkDgGMQC-27" value="旧的aof文件" style="rounded=1;whiteSpace=wrap;html=1;strokeWidth=2;fillWeight=4;hachureGap=8;hachureAngle=45;fillColor=#f8cecc;sketch=1;fontFamily=Comic Sans MS;fontSize=20;strokeColor=#b85450;" vertex="1" parent="1">
          <mxGeometry x="260" y="90" width="120" height="60" as="geometry" />
        </mxCell>
        <mxCell id="YdQVYFNw6rNRHkDgGMQC-35" style="edgeStyle=none;rounded=0;orthogonalLoop=1;jettySize=auto;html=1;exitX=0.25;exitY=1;exitDx=0;exitDy=0;fontFamily=Comic Sans MS;fontSize=17;fillColor=#66B2FF;" edge="1" parent="1" source="YdQVYFNw6rNRHkDgGMQC-28" target="YdQVYFNw6rNRHkDgGMQC-32">
          <mxGeometry relative="1" as="geometry" />
        </mxCell>
        <mxCell id="YdQVYFNw6rNRHkDgGMQC-36" value="3.追加命令到末尾" style="edgeLabel;html=1;align=center;verticalAlign=middle;resizable=0;points=[];fontSize=17;fontFamily=Comic Sans MS;labelBackgroundColor=#FFCE9F;" vertex="1" connectable="0" parent="YdQVYFNw6rNRHkDgGMQC-35">
          <mxGeometry x="-0.2296" y="3" relative="1" as="geometry">
            <mxPoint as="offset" />
          </mxGeometry>
        </mxCell>
        <mxCell id="YdQVYFNw6rNRHkDgGMQC-28" value="aof重写缓存区" style="rounded=1;whiteSpace=wrap;html=1;strokeWidth=2;fillWeight=4;hachureGap=8;hachureAngle=45;fillColor=#fff2cc;sketch=1;fontFamily=Comic Sans MS;fontSize=20;strokeColor=#d6b656;" vertex="1" parent="1">
          <mxGeometry x="260" y="260" width="120" height="60" as="geometry" />
        </mxCell>
        <mxCell id="YdQVYFNw6rNRHkDgGMQC-37" style="edgeStyle=none;rounded=0;orthogonalLoop=1;jettySize=auto;html=1;exitX=0.5;exitY=0;exitDx=0;exitDy=0;entryX=0;entryY=0.5;entryDx=0;entryDy=0;fontFamily=Comic Sans MS;fontSize=17;fillColor=#66B2FF;" edge="1" parent="1" source="YdQVYFNw6rNRHkDgGMQC-32" target="YdQVYFNw6rNRHkDgGMQC-27">
          <mxGeometry relative="1" as="geometry">
            <Array as="points">
              <mxPoint x="140" y="330" />
              <mxPoint x="150" y="250" />
              <mxPoint x="190" y="160" />
            </Array>
          </mxGeometry>
        </mxCell>
        <mxCell id="YdQVYFNw6rNRHkDgGMQC-47" value="&lt;span style=&quot;color: rgb(64 , 64 , 64) ; font-size: 16px ; background-color: rgb(255 , 206 , 159)&quot;&gt;4.对新的AOF文件进行改名，&lt;br&gt;原子性操作地覆盖现有的AOF文件，&lt;br&gt;完成新旧AOF文件的替换。&lt;/span&gt;" style="edgeLabel;html=1;align=center;verticalAlign=middle;resizable=0;points=[];fontSize=17;fontFamily=Comic Sans MS;fontColor=none;" vertex="1" connectable="0" parent="YdQVYFNw6rNRHkDgGMQC-37">
          <mxGeometry x="0.2146" y="4" relative="1" as="geometry">
            <mxPoint x="-17" y="-5" as="offset" />
          </mxGeometry>
        </mxCell>
        <mxCell id="YdQVYFNw6rNRHkDgGMQC-32" value="（新）临时文件" style="rounded=1;whiteSpace=wrap;html=1;strokeWidth=2;fillWeight=4;hachureGap=8;hachureAngle=45;fillColor=#e1d5e7;sketch=1;fontFamily=Comic Sans MS;fontSize=20;strokeColor=#9673a6;" vertex="1" parent="1">
          <mxGeometry x="80" y="480" width="150" height="60" as="geometry" />
        </mxCell>
        <mxCell id="YdQVYFNw6rNRHkDgGMQC-43" value="&lt;span style=&quot;background-color: rgb(102 , 178 , 255)&quot;&gt;3.继续原aof操作&lt;/span&gt;" style="text;html=1;align=center;verticalAlign=middle;resizable=0;points=[];autosize=1;strokeColor=none;fillColor=none;fontSize=17;fontFamily=Comic Sans MS;fontColor=none;" vertex="1" parent="1">
          <mxGeometry x="430" y="135" width="140" height="30" as="geometry" />
        </mxCell>
      </root>
    </mxGraphModel>
  </diagram>
</mxfile>
